<svg width="934" height="225" viewBox="0 0 934 225" fill="none" xmlns="http://www.w3.org/2000/svg">
<path d="M910.436 18.9199H933.375V184.22H910.436V18.9199Z" fill="#0E0E0E"/>
<path d="M871.008 184.22L856.599 147.679H782.479L768.07 184.22H744.094L809.914 18.9199H829.51L895.791 184.22H871.008ZM791.24 125.892H848.184L819.827 53.3863L791.24 125.892Z" fill="#0E0E0E"/>
<path d="M714.926 68.834H743.283L678.039 224.797H649.797L670.546 178.112L624.783 68.834H653.025L684.033 147.45L714.926 68.834Z" fill="#0E0E0E"/>
<path d="M608.409 66.4111C613.711 66.4111 618.13 67.0259 621.665 68.2555L620.051 93.039C615.594 91.502 611.022 90.7335 606.334 90.7335C601.569 90.7335 596.536 92.5395 591.233 96.1513C585.931 99.6863 581.819 104.489 578.899 110.56V184.219H552.732V68.8318H578.899V84.6241C581.743 79.2448 586.008 74.8644 591.694 71.4831C597.381 68.1018 602.953 66.4111 608.409 66.4111Z" fill="#0E0E0E"/>
<path d="M503.391 68.8318H529.673V184.219H503.391V168.657C500.317 173.883 495.322 178.187 488.406 181.568C481.566 184.872 474.304 186.525 466.62 186.525C451.096 186.525 437.955 180.723 427.197 169.119C416.515 157.514 411.174 143.259 411.174 126.353C411.174 109.6 416.515 95.4213 427.197 83.8172C437.955 72.2132 451.096 66.4111 466.62 66.4111C474.228 66.4111 481.49 68.1018 488.406 71.4831C495.322 74.8644 500.317 79.1679 503.391 84.3936V68.8318ZM472.037 161.511C478.493 161.511 484.602 159.897 490.366 156.669C496.206 153.442 500.548 149.33 503.391 144.335V108.947C500.548 103.798 496.244 99.6095 490.481 96.3819C484.717 93.0774 478.569 91.4252 472.037 91.4252C462.124 91.4252 453.824 94.7681 447.139 101.454C440.453 108.063 437.11 116.362 437.11 126.353C437.11 136.343 440.453 144.719 447.139 151.482C453.824 158.168 462.124 161.511 472.037 161.511Z" fill="#0E0E0E"/>
<path d="M369.211 20.1881C372.515 16.8837 376.473 15.2314 381.084 15.2314C385.694 15.2314 389.652 16.8837 392.957 20.1881C396.338 23.4926 398.029 27.4119 398.029 31.9459C398.029 36.6336 396.338 40.6297 392.957 43.9342C389.652 47.2386 385.694 48.8909 381.084 48.8909C376.473 48.8909 372.515 47.2386 369.211 43.9342C365.906 40.6297 364.254 36.6336 364.254 31.9459C364.254 27.4119 365.906 23.4926 369.211 20.1881ZM367.827 68.8329H393.994V184.22H367.827V68.8329Z" fill="#0E0E0E"/>
<path d="M297.391 66.412C311.915 66.412 323.404 71.0997 331.857 80.4752C340.387 89.8507 344.652 102.492 344.652 118.4V184.22H318.255V122.55C318.255 113.251 315.796 105.95 310.878 100.648C305.96 95.2684 299.351 92.5788 291.051 92.5788C285.211 92.5788 279.639 94.0389 274.337 96.9591C269.034 99.8793 265 103.799 262.233 108.717V184.22H236.066V18.9199H262.233V84.3944C265.614 78.8614 270.456 74.481 276.757 71.2534C283.136 68.0258 290.014 66.412 297.391 66.412Z" fill="#0E0E0E"/>
<rect x="110.137" width="44.3505" height="44.3505" fill="#84CEB8"/>
<path d="M155.229 209.925H110.879V144.873C137.763 125.245 155.229 93.4905 155.229 57.6553V209.925Z" fill="#84CEB8"/>
<path d="M44.3506 209.999H0V57.7295H44.3506V209.999ZM0.000976562 143.854C13.4528 150.424 28.4728 154.281 44.3486 154.709V110.33C26.7534 109.524 11.0243 101.566 0.000976562 89.2939V143.854Z" fill="#5493DD"/>
<path d="M0 89.2197C11.0233 101.492 26.7524 109.45 44.3477 110.256V154.634C28.4718 154.206 13.4518 150.35 0 143.779V89.2197Z" fill="#003B83"/>
<path d="M154.992 56.8545C149.784 111.602 103.676 154.426 47.5645 154.426C46.5763 154.426 45.5912 154.41 44.6094 154.384V110.006C45.5888 110.051 46.574 110.075 47.5645 110.075C79.1489 110.075 105.354 87.0408 110.296 56.8545H154.992Z" fill="#20A78D"/>
</svg>
